<?xml version="1.0" encoding="UTF-8"?>
<svg id="Calque_3" xmlns="http://www.w3.org/2000/svg" xmlns:xlink="http://www.w3.org/1999/xlink" version="1.1" viewBox="0 0 256 256">
  <!-- Generator: Adobe Illustrator 29.7.0, SVG Export Plug-In . SVG Version: 2.1.1 Build 138)  -->
  <defs>
    <style>
      .st0 {
        fill: #131d55;
      }

      .st1 {
        fill: #fea012;
      }

      .st2 {
        fill: #ffc91a;
      }

      .st3 {
        fill: url(#Dégradé_sans_nom_16);
      }

      .st4 {
        fill: url(#Dégradé_sans_nom_34);
      }
    </style>
    <linearGradient id="Dégradé_sans_nom_34" data-name="Dégradé sans nom 34" x1="14.4" y1="167.7" x2="246.9" y2="167.7" gradientUnits="userSpaceOnUse">
      <stop offset="0" stop-color="#21294c"/>
      <stop offset=".5" stop-color="#5547c0"/>
    </linearGradient>
    <linearGradient id="Dégradé_sans_nom_16" data-name="Dégradé sans nom 16" x1="56" y1="97.3" x2="194.6" y2="97.3" gradientUnits="userSpaceOnUse">
      <stop offset="0" stop-color="#feaa15"/>
      <stop offset="1" stop-color="#ffc91b"/>
    </linearGradient>
  </defs>
  <path class="st4" d="M14.4,189.1s11.3,7,21,5.2,199-95.6,199-95.6c0,0,9.9-5.8,9.7-9-.2-3.2,23.5,86.9-64.6,140-97.1,50-162.6-31.4-165-40.5Z"/>
  <path class="st0" d="M99.3,198.2s3.1-2.4,7.1-1.6c14.1,2.9,32.9,3.5,50.5-5.5s30.2-26.2,35.1-33.5,2.7-3.5,2.7-3.5c4.2-1.9,9.2,0,11.2,4.2h0c1.2,5.2-1.8,9-3.3,12.1,0,0-12.8,23.4-38.9,36.8-30.7,13.6-60.4,6.2-60.4,6.2-4-1-5.7-3.7-6.1-4.6,0,0-2.8-6.2,2.2-10.5Z"/>
  <path class="st0" d="M21.7,159.8c54.3-35.8,192.3-82.8,192.3-82.8,0,0,2.7-2.1,13,.6,13.9,2.6,16.7,10.7,16.7,10.7,0,0,2.2,4.7-4.8,8.1-7,3.4-172.9,86.2-172.9,86.2,0,0-33.9,20-49.6,8.8-18.9-19.5-3.8-24.4,5.2-31.6Z"/>
  <g>
    <path class="st2" d="M21.7,159.8l6.6,10.2s5.6,7.7,11.8,6.5c6.1-1.1,24.1-10.1,24.1-10.1l146.1-68.6,4.4-2.3s3.3-1.3,3.7-6.8-.9-23-16.5-44.9C186.4,21.9,161.9,4,117.7,4.2c-44.2.2-73.9,25.6-90.2,52.2-16.3,26.6-22.9,69.7-5.8,103.5Z"/>
    <path class="st1" d="M130.4,4.9s-58.7,2.3-84.3,48.8c-25.6,46.5-11.5,91,5.2,118.1-4,2-7.4,4-7.4,4,0,0-6.5,2.6-11.9-1.8S-7.4,126.1,24.6,61.9C56.6-2.4,121.2,3.8,130.4,4.9Z"/>
    <path class="st1" d="M57,94.9s12.1-54.2,58.1-61c46-6.8,64.6,25.2,64.6,25.2,0,0,13.1,18.9,16.2,45.5.8-.4,2.5-1.2,2.5-1.2,0,0,4.1-50.1-43.1-70.4-47.2-20.3-91.6,17.4-98.4,62Z"/>
  </g>
  <path class="st3" d="M74.2,161.8s-12.1-13.2-16.9-35c-1.4-5.2-1.9-24.9-.3-33.6,19.1-56,51.8-60.9,73.9-60.1,22.1.8,41.5,12.5,53.9,35.1,12.4,22.6,9.5,37.3,9.5,37.3l-120.1,56.4Z"/>
</svg>