<?xml version="1.0" encoding="UTF-8"?>
<svg id="Calque_1" xmlns="http://www.w3.org/2000/svg" xmlns:xlink="http://www.w3.org/1999/xlink" version="1.1" viewBox="0 0 303.9 96.3">
  <!-- Generator: Adobe Illustrator 29.7.0, SVG Export Plug-In . SVG Version: 2.1.1 Build 138)  -->
  <defs>
    <style>
      .st0 {
        fill: none;
      }

      .st1 {
        fill: #141f55;
      }

      .st2 {
        fill: #131d55;
      }

      .st3 {
        fill: #fea012;
      }

      .st4 {
        fill: #ffc91a;
      }

      .st5 {
        fill: url(#Dégradé_sans_nom_16);
      }

      .st6 {
        fill: url(#Dégradé_sans_nom_34);
      }
    </style>
    <linearGradient id="Dégradé_sans_nom_34" data-name="Dégradé sans nom 34" x1="12.1" y1="61.7" x2="85.5" y2="61.7" gradientUnits="userSpaceOnUse">
      <stop offset="0" stop-color="#21294c"/>
      <stop offset=".5" stop-color="#5547c0"/>
    </linearGradient>
    <linearGradient id="Dégradé_sans_nom_16" data-name="Dégradé sans nom 16" x1="25.3" y1="39.5" x2="69" y2="39.5" gradientUnits="userSpaceOnUse">
      <stop offset="0" stop-color="#feaa15"/>
      <stop offset="1" stop-color="#ffc91b"/>
    </linearGradient>
  </defs>
  <g>
    <path class="st6" d="M12.1,68.4s3.6,2.2,6.6,1.6,62.8-30.2,62.8-30.2c0,0,3.1-1.8,3.1-2.8s7.4,27.4-20.4,44.2c-30.6,15.8-51.3-9.9-52.1-12.8Z"/>
    <path class="st2" d="M38.9,71.3s1-.8,2.3-.5c4.4.9,10.4,1.1,15.9-1.7s9.5-8.3,11.1-10.6.9-1.1.9-1.1c1.3-.6,2.9,0,3.5,1.3h0c.4,1.6-.6,2.8-1.1,3.8,0,0-4,7.4-12.3,11.6-9.7,4.3-19.1,2-19.1,2-1.3-.3-1.8-1.2-1.9-1.5,0,0-.9-2,.7-3.3Z"/>
    <path class="st2" d="M14.4,59.2c17.1-11.3,60.7-26.1,60.7-26.1,0,0,.9-.7,4.1.2,4.4.8,5.3,3.4,5.3,3.4,0,0,.7,1.5-1.5,2.6s-54.6,27.2-54.6,27.2c0,0-10.7,6.3-15.6,2.8-6-6.1-1.2-7.7,1.6-10Z"/>
    <g>
      <path class="st4" d="M14.4,59.2l2.1,3.2s1.8,2.4,3.7,2.1,7.6-3.2,7.6-3.2l46.1-21.7,1.4-.7s1.1-.4,1.2-2.2-.3-7.3-5.2-14.2c-4.9-6.9-12.6-12.6-26.6-12.5s-23.3,8.1-28.5,16.5-7.2,22-1.8,32.7Z"/>
      <path class="st3" d="M48.8,10.3s-18.5.7-26.6,15.4-3.6,28.7,1.7,37.3c-1.3.6-2.3,1.3-2.3,1.3,0,0-2,.8-3.8-.6s-12.5-15.1-2.4-35.4C25.5,8,45.8,9.9,48.8,10.3Z"/>
      <path class="st3" d="M25.6,38.7s3.8-17.1,18.3-19.3c14.5-2.2,20.4,8,20.4,8,0,0,4.1,6,5.1,14.4.3-.1.8-.4.8-.4,0,0,1.3-15.8-13.6-22.2s-28.9,5.5-31,19.6Z"/>
    </g>
    <path class="st5" d="M31,59.8s-3.8-4.2-5.3-11.1c-.5-1.6-.6-7.9-.1-10.6,6-17.7,16.3-19.2,23.3-19,7,.2,13.1,3.9,17,11.1s3,11.8,3,11.8l-37.9,17.8Z"/>
  </g>
  <g>
    <path class="st1" d="M111.9,60.1c-2.4,0-4.6-.6-6.6-1.7-1.9-1.1-3.5-2.7-4.6-4.8-1.1-2.1-1.7-4.7-1.7-7.7s.6-5.6,1.7-7.7c1.1-2.1,2.7-3.7,4.6-4.9,1.9-1.1,4.1-1.7,6.5-1.7s3,.2,4.4.7c1.4.4,2.6,1.1,3.6,1.9,1.1.8,1.9,1.9,2.6,3.1.7,1.2,1.1,2.6,1.3,4.2h-5.7c-.1-.8-.4-1.4-.7-2-.4-.6-.8-1.1-1.3-1.5-.5-.4-1.1-.7-1.8-.9-.7-.2-1.4-.3-2.2-.3-1.4,0-2.7.4-3.8,1.1-1.1.7-1.9,1.8-2.5,3.1-.6,1.4-.9,3-.9,5s.3,3.7.9,5c.6,1.4,1.4,2.4,2.5,3.1,1.1.7,2.3,1,3.7,1s1.5-.1,2.2-.3c.7-.2,1.3-.5,1.8-.9.5-.4,1-.9,1.3-1.5.4-.6.6-1.3.7-2h5.7c-.1,1.3-.5,2.5-1.1,3.7-.6,1.2-1.4,2.2-2.4,3.2-1,.9-2.2,1.7-3.6,2.2-1.4.5-3,.8-4.7.8Z"/>
    <path class="st1" d="M137.1,60.1c-2.1,0-3.9-.4-5.4-1.3-1.5-.9-2.7-2.1-3.5-3.7-.8-1.6-1.2-3.5-1.2-5.6s.4-4,1.2-5.6c.8-1.6,2-2.9,3.5-3.7,1.5-.9,3.3-1.3,5.4-1.3s3.9.4,5.4,1.3c1.5.9,2.7,2.1,3.5,3.7.8,1.6,1.2,3.5,1.2,5.6s-.4,4-1.2,5.6c-.8,1.6-2,2.9-3.5,3.7-1.5.9-3.3,1.3-5.4,1.3ZM137.1,55.7c1,0,1.8-.3,2.5-.8.7-.6,1.2-1.3,1.5-2.3.3-1,.5-2,.5-3.2s-.2-2.3-.5-3.3c-.3-1-.8-1.7-1.5-2.2-.7-.5-1.5-.8-2.5-.8s-1.8.3-2.5.8c-.7.5-1.2,1.3-1.5,2.2-.3,1-.5,2-.5,3.3s.2,2.3.5,3.2c.3,1,.8,1.7,1.5,2.3.7.6,1.5.8,2.5.8Z"/>
    <path class="st1" d="M153.9,36.2c-.8,0-1.6-.3-2.2-.8s-.9-1.2-.9-2,.3-1.5.9-2,1.3-.8,2.2-.8,1.6.3,2.2.8c.6.6.9,1.2.9,2s-.3,1.5-.9,2c-.6.6-1.3.8-2.2.8ZM151.1,59.7v-20.7h5.6v20.7h-5.6Z"/>
    <path class="st1" d="M167,47.7v12h-5.6v-20.7h5.3v5.2c0,0-.2,0-.2,0,.5-1.7,1.4-3.1,2.5-4,1.1-.9,2.5-1.4,4.3-1.4s2.7.3,3.8.9c1.1.6,1.9,1.5,2.5,2.7.6,1.2.9,2.6.9,4.2v13.2h-5.6v-12.2c0-1.3-.3-2.3-1-3-.7-.7-1.6-1.1-2.8-1.1s-1.5.2-2.1.5c-.6.3-1.1.8-1.4,1.5-.3.6-.5,1.4-.5,2.4Z"/>
    <path class="st1" d="M197.3,60.1c-2.4,0-4.6-.6-6.6-1.7-1.9-1.1-3.5-2.7-4.6-4.8-1.1-2.1-1.7-4.7-1.7-7.7s.6-5.6,1.7-7.7c1.1-2.1,2.7-3.7,4.6-4.9,1.9-1.1,4.1-1.7,6.6-1.7s4.6.6,6.6,1.7c1.9,1.1,3.5,2.7,4.6,4.9,1.1,2.1,1.7,4.7,1.7,7.7s-.6,5.5-1.7,7.7c-1.1,2.1-2.7,3.7-4.6,4.8-1.9,1.1-4.1,1.7-6.6,1.7ZM197.3,55c1.4,0,2.7-.3,3.8-1,1.1-.7,1.9-1.7,2.5-3.1.6-1.4.9-3,.9-5s-.3-3.7-.9-5c-.6-1.4-1.4-2.4-2.5-3.1-1.1-.7-2.3-1-3.8-1s-2.7.4-3.7,1.1-1.9,1.7-2.5,3.1c-.6,1.4-.9,3-.9,5s.3,3.6.9,5c.6,1.4,1.4,2.4,2.5,3.1s2.3,1.1,3.7,1.1ZM195.6,50.2h4.8l2.6,3.3,2.3,2.7,4.6,5.8h-5.3l-3.2-3.9-1.5-2.2-4.3-5.7Z"/>
    <path class="st1" d="M221.7,60c-1.4,0-2.7-.3-3.8-.9-1.1-.6-1.9-1.5-2.5-2.7-.6-1.2-.9-2.6-.9-4.2v-13.2h5.6v12.2c0,1.3.3,2.3,1,3,.7.7,1.6,1.1,2.7,1.1s1.5-.2,2.1-.5c.6-.3,1.1-.8,1.4-1.5.3-.6.5-1.4.5-2.3v-12h5.6v20.7h-5.3v-5.2c0,0,.2,0,.2,0-.5,1.7-1.4,3.1-2.5,4-1.1.9-2.5,1.4-4.3,1.4Z"/>
    <path class="st1" d="M247.6,60.1c-2.1,0-3.9-.4-5.5-1.3-1.5-.9-2.7-2.1-3.5-3.7-.8-1.6-1.2-3.5-1.2-5.7s.4-4,1.2-5.6c.8-1.6,2-2.9,3.5-3.8,1.5-.9,3.3-1.4,5.3-1.4s2.6.2,3.8.6c1.2.4,2.2,1.1,3.1,2s1.6,2,2.1,3.3c.5,1.3.8,2.9.8,4.6v1.6h-17.4v-3.5h14.7l-2.6.9c0-1.1-.2-2-.5-2.8-.3-.8-.8-1.4-1.5-1.9-.7-.4-1.5-.7-2.4-.7s-1.8.2-2.5.7c-.7.4-1.2,1-1.5,1.8-.3.8-.5,1.6-.5,2.6v2.5c0,1.2.2,2.2.6,3,.4.8,1,1.4,1.7,1.8.7.4,1.6.6,2.5.6s1.2,0,1.8-.3c.5-.2,1-.5,1.4-.8.4-.4.7-.8.9-1.3l5,.9c-.3,1.1-.9,2.1-1.7,3-.8.9-1.9,1.5-3.1,2-1.2.5-2.7.7-4.3.7Z"/>
    <path class="st1" d="M269.1,60.1c-1.7,0-3.1-.2-4.4-.7-1.3-.5-2.3-1.2-3.2-2.1s-1.3-2-1.6-3.3l5.2-.9c.3,1,.7,1.7,1.4,2.2.7.5,1.6.7,2.7.7s1.9-.2,2.5-.6c.6-.4.9-.9.9-1.5s-.2-1-.7-1.3c-.4-.3-1.1-.6-2-.8l-3.6-.7c-2-.4-3.5-1.1-4.5-2.1-1-1-1.5-2.2-1.5-3.8s.4-2.5,1.1-3.4c.7-1,1.7-1.7,3-2.2s2.8-.8,4.6-.8,3,.2,4.2.7c1.2.5,2.2,1.1,2.9,1.9.7.8,1.2,1.8,1.5,2.9l-4.9.9c-.2-.7-.6-1.3-1.2-1.7-.6-.5-1.4-.7-2.4-.7s-1.7.2-2.3.6c-.6.4-.9.9-.9,1.5s.2,1,.6,1.3c.4.4,1.1.6,2.1.8l3.7.7c2,.4,3.5,1.1,4.5,2,1,.9,1.5,2.1,1.5,3.6s-.4,2.6-1.2,3.6c-.8,1-1.9,1.8-3.3,2.4-1.4.6-3,.9-4.8.9Z"/>
    <path class="st1" d="M292.5,38.9v4.2h-12.3v-4.2h12.3ZM283,34h5.6v19.6c0,.7.1,1.1.4,1.5.3.3.8.5,1.5.5s.5,0,.9,0c.4,0,.7-.1.9-.2l.8,4.2c-.6.2-1.2.3-1.8.4-.6,0-1.2.1-1.8.1-2.1,0-3.7-.5-4.8-1.5-1.1-1-1.7-2.5-1.7-4.4v-20.1Z"/>
  </g>
  <rect class="st0" x="85.5" y="29.6" width="13.5" height="37.4"/>
</svg>