<?xml version="1.0" encoding="UTF-8"?>
<svg id="Calque_1" xmlns="http://www.w3.org/2000/svg" xmlns:xlink="http://www.w3.org/1999/xlink" version="1.1" viewBox="0 0 214.5 150">
  <!-- Generator: Adobe Illustrator 29.7.0, SVG Export Plug-In . SVG Version: 2.1.1 Build 138)  -->
  <defs>
    <style>
      .st0 {
        fill: #ccc;
      }

      .st1 {
        fill: #fff;
      }

      .st2 {
        fill: #f9f9f9;
      }

      .st3 {
        fill: url(#Dégradé_sans_nom_42);
      }

      .st4 {
        fill: url(#Dégradé_sans_nom_55);
      }

      .st5 {
        fill: #999;
      }
    </style>
    <linearGradient id="Dégradé_sans_nom_55" data-name="Dégradé sans nom 55" x1="73.1" y1="69.5" x2="146.5" y2="69.5" gradientUnits="userSpaceOnUse">
      <stop offset="0" stop-color="#999"/>
      <stop offset=".5" stop-color="#ccc"/>
    </linearGradient>
    <linearGradient id="Dégradé_sans_nom_42" data-name="Dégradé sans nom 42" x1="86.2" y1="47.3" x2="130" y2="47.3" gradientUnits="userSpaceOnUse">
      <stop offset="0" stop-color="#ccc"/>
      <stop offset="1" stop-color="#fff"/>
    </linearGradient>
  </defs>
  <g>
    <path class="st4" d="M73.1,76.3s3.6,2.2,6.6,1.6,62.8-30.2,62.8-30.2c0,0,3.1-1.8,3.1-2.8s7.4,27.4-20.4,44.2c-30.6,15.8-51.3-9.9-52.1-12.8Z"/>
    <path class="st5" d="M99.9,79.1s1-.8,2.3-.5c4.4.9,10.4,1.1,15.9-1.7s9.5-8.3,11.1-10.6.9-1.1.9-1.1c1.3-.6,2.9,0,3.5,1.3h0c.4,1.6-.6,2.8-1.1,3.8,0,0-4,7.4-12.3,11.6-9.7,4.3-19.1,2-19.1,2-1.3-.3-1.8-1.2-1.9-1.5,0,0-.9-2,.7-3.3Z"/>
    <path class="st5" d="M75.4,67c17.1-11.3,60.7-26.1,60.7-26.1,0,0,.9-.7,4.1.2,4.4.8,5.3,3.4,5.3,3.4,0,0,.7,1.5-1.5,2.6s-54.6,27.2-54.6,27.2c0,0-10.7,6.3-15.6,2.8-6-6.1-1.2-7.7,1.6-10Z"/>
    <g>
      <path class="st1" d="M75.4,67l2.1,3.2s1.8,2.4,3.7,2.1,7.6-3.2,7.6-3.2l46.1-21.7,1.4-.7s1.1-.4,1.2-2.2-.3-7.3-5.2-14.2-12.6-12.6-26.6-12.5-23.3,8.1-28.5,16.5c-5.1,8.4-7.2,22-1.8,32.7Z"/>
      <path class="st0" d="M109.7,18.1s-18.5.7-26.6,15.4-3.6,28.7,1.7,37.3c-1.3.6-2.3,1.3-2.3,1.3,0,0-2,.8-3.8-.6s-12.5-15.1-2.4-35.4c10.1-20.3,30.5-18.3,33.4-18Z"/>
      <path class="st0" d="M86.6,46.5s3.8-17.1,18.3-19.3c14.5-2.2,20.4,8,20.4,8,0,0,4.1,6,5.1,14.4.3-.1.8-.4.8-.4,0,0,1.3-15.8-13.6-22.2-14.9-6.4-28.9,5.5-31,19.6Z"/>
    </g>
    <path class="st3" d="M92,67.6s-3.8-4.2-5.3-11.1c-.5-1.6-.6-7.9-.1-10.6,6-17.7,16.3-19.2,23.3-19,7,.2,13.1,3.9,17,11.1s3,11.8,3,11.8l-37.9,17.8Z"/>
  </g>
  <g>
    <path class="st2" d="M23.1,138.3c-2.4,0-4.6-.6-6.6-1.7-1.9-1.1-3.5-2.7-4.6-4.8-1.1-2.1-1.7-4.7-1.7-7.7s.6-5.6,1.7-7.7c1.1-2.1,2.7-3.7,4.6-4.9,1.9-1.1,4.1-1.7,6.5-1.7s3,.2,4.4.7c1.4.4,2.6,1.1,3.6,1.9,1.1.8,1.9,1.9,2.6,3.1.7,1.2,1.1,2.6,1.3,4.2h-5.7c-.1-.8-.4-1.4-.7-2-.4-.6-.8-1.1-1.3-1.5-.5-.4-1.1-.7-1.8-.9-.7-.2-1.4-.3-2.2-.3-1.4,0-2.7.4-3.8,1.1-1.1.7-1.9,1.8-2.5,3.1-.6,1.4-.9,3-.9,5s.3,3.7.9,5c.6,1.4,1.4,2.4,2.5,3.1,1.1.7,2.3,1,3.7,1s1.5-.1,2.2-.3c.7-.2,1.3-.5,1.8-.9.5-.4,1-.9,1.3-1.5.4-.6.6-1.3.7-2h5.7c-.1,1.3-.5,2.5-1.1,3.7-.6,1.2-1.4,2.2-2.4,3.2-1,.9-2.2,1.7-3.6,2.2-1.4.5-3,.8-4.7.8Z"/>
    <path class="st2" d="M48.3,138.4c-2.1,0-3.9-.4-5.4-1.3-1.5-.9-2.7-2.1-3.5-3.7-.8-1.6-1.2-3.5-1.2-5.6s.4-4,1.2-5.6c.8-1.6,2-2.9,3.5-3.7,1.5-.9,3.3-1.3,5.4-1.3s3.9.4,5.4,1.3c1.5.9,2.7,2.1,3.5,3.7.8,1.6,1.2,3.5,1.2,5.6s-.4,4-1.2,5.6c-.8,1.6-2,2.9-3.5,3.7-1.5.9-3.3,1.3-5.4,1.3ZM48.3,134c1,0,1.8-.3,2.5-.8.7-.6,1.2-1.3,1.5-2.3.3-1,.5-2,.5-3.2s-.2-2.3-.5-3.3c-.3-1-.8-1.7-1.5-2.2-.7-.5-1.5-.8-2.5-.8s-1.8.3-2.5.8c-.7.5-1.2,1.3-1.5,2.2-.3,1-.5,2-.5,3.3s.2,2.3.5,3.2c.3,1,.8,1.7,1.5,2.3.7.6,1.5.8,2.5.8Z"/>
    <path class="st2" d="M65.1,114.5c-.8,0-1.6-.3-2.2-.8s-.9-1.2-.9-2,.3-1.5.9-2,1.3-.8,2.2-.8,1.6.3,2.2.8c.6.6.9,1.2.9,2s-.3,1.5-.9,2c-.6.6-1.3.8-2.2.8ZM62.3,138v-20.7h5.6v20.7h-5.6Z"/>
    <path class="st2" d="M78.2,126v12h-5.6v-20.7h5.3v5.2c0,0-.2,0-.2,0,.5-1.7,1.4-3.1,2.5-4,1.1-.9,2.5-1.4,4.3-1.4s2.7.3,3.8.9c1.1.6,1.9,1.5,2.5,2.7.6,1.2.9,2.6.9,4.2v13.2h-5.6v-12.2c0-1.3-.3-2.3-1-3-.7-.7-1.6-1.1-2.8-1.1s-1.5.2-2.1.5c-.6.3-1.1.8-1.4,1.5-.3.6-.5,1.4-.5,2.4Z"/>
    <path class="st2" d="M108.5,138.3c-2.4,0-4.6-.6-6.6-1.7-1.9-1.1-3.5-2.7-4.6-4.8-1.1-2.1-1.7-4.7-1.7-7.7s.6-5.6,1.7-7.7c1.1-2.1,2.7-3.7,4.6-4.9,1.9-1.1,4.1-1.7,6.6-1.7s4.6.6,6.6,1.7c1.9,1.1,3.5,2.7,4.6,4.9,1.1,2.1,1.7,4.7,1.7,7.7s-.6,5.5-1.7,7.7c-1.1,2.1-2.7,3.7-4.6,4.8-1.9,1.1-4.1,1.7-6.6,1.7ZM108.5,133.3c1.4,0,2.7-.3,3.8-1,1.1-.7,1.9-1.7,2.5-3.1.6-1.4.9-3,.9-5s-.3-3.7-.9-5c-.6-1.4-1.4-2.4-2.5-3.1-1.1-.7-2.3-1-3.8-1s-2.7.4-3.7,1.1-1.9,1.7-2.5,3.1c-.6,1.4-.9,3-.9,5s.3,3.6.9,5c.6,1.4,1.4,2.4,2.5,3.1s2.3,1.1,3.7,1.1ZM106.8,128.5h4.8l2.6,3.3,2.3,2.7,4.6,5.8h-5.3l-3.2-3.9-1.5-2.2-4.3-5.7Z"/>
    <path class="st2" d="M132.9,138.2c-1.4,0-2.7-.3-3.8-.9-1.1-.6-1.9-1.5-2.5-2.7-.6-1.2-.9-2.6-.9-4.2v-13.2h5.6v12.2c0,1.3.3,2.3,1,3,.7.7,1.6,1.1,2.7,1.1s1.5-.2,2.1-.5c.6-.3,1.1-.8,1.4-1.5.3-.6.5-1.4.5-2.3v-12h5.6v20.7h-5.3v-5.2c0,0,.2,0,.2,0-.5,1.7-1.4,3.1-2.5,4-1.1.9-2.5,1.4-4.3,1.4Z"/>
    <path class="st2" d="M158.8,138.4c-2.1,0-3.9-.4-5.5-1.3-1.5-.9-2.7-2.1-3.5-3.7-.8-1.6-1.2-3.5-1.2-5.7s.4-4,1.2-5.6c.8-1.6,2-2.9,3.5-3.8,1.5-.9,3.3-1.4,5.3-1.4s2.6.2,3.8.6c1.2.4,2.2,1.1,3.1,2s1.6,2,2.1,3.3c.5,1.3.8,2.9.8,4.6v1.6h-17.4v-3.5h14.7l-2.6.9c0-1.1-.2-2-.5-2.8-.3-.8-.8-1.4-1.5-1.9-.7-.4-1.5-.7-2.4-.7s-1.8.2-2.5.7c-.7.4-1.2,1-1.5,1.8-.3.8-.5,1.6-.5,2.6v2.5c0,1.2.2,2.2.6,3,.4.8,1,1.4,1.7,1.8.7.4,1.6.6,2.5.6s1.2,0,1.8-.3c.5-.2,1-.5,1.4-.8.4-.4.7-.8.9-1.3l5,.9c-.3,1.1-.9,2.1-1.7,3-.8.9-1.9,1.5-3.1,2-1.2.5-2.7.7-4.3.7Z"/>
    <path class="st2" d="M180.3,138.4c-1.7,0-3.1-.2-4.4-.7-1.3-.5-2.3-1.2-3.2-2.1s-1.3-2-1.6-3.3l5.2-.9c.3,1,.7,1.7,1.4,2.2.7.5,1.6.7,2.7.7s1.9-.2,2.5-.6c.6-.4.9-.9.9-1.5s-.2-1-.7-1.3c-.4-.3-1.1-.6-2-.8l-3.6-.7c-2-.4-3.5-1.1-4.5-2.1-1-1-1.5-2.2-1.5-3.8s.4-2.5,1.1-3.4c.7-1,1.7-1.7,3-2.2s2.8-.8,4.6-.8,3,.2,4.2.7c1.2.5,2.2,1.1,2.9,1.9.7.8,1.2,1.8,1.5,2.9l-4.9.9c-.2-.7-.6-1.3-1.2-1.7-.6-.5-1.4-.7-2.4-.7s-1.7.2-2.3.6c-.6.4-.9.9-.9,1.5s.2,1,.6,1.3c.4.4,1.1.6,2.1.8l3.7.7c2,.4,3.5,1.1,4.5,2,1,.9,1.5,2.1,1.5,3.6s-.4,2.6-1.2,3.6c-.8,1-1.9,1.8-3.3,2.4-1.4.6-3,.9-4.8.9Z"/>
    <path class="st2" d="M203.7,117.2v4.2h-12.3v-4.2h12.3ZM194.2,112.3h5.6v19.6c0,.7.1,1.1.4,1.5.3.3.8.5,1.5.5s.5,0,.9,0c.4,0,.7-.1.9-.2l.8,4.2c-.6.2-1.2.3-1.8.4-.6,0-1.2.1-1.8.1-2.1,0-3.7-.5-4.8-1.5-1.1-1-1.7-2.5-1.7-4.4v-20.1Z"/>
  </g>
</svg>